<svg width="70" height="70" viewBox="0 0 70 70" fill="none" xmlns="http://www.w3.org/2000/svg">
<path d="M38.5604 22.6626C38.1223 23.0271 37.4738 23.2129 36.6116 23.2129C35.7984 23.2129 35.1499 23.0096 34.6733 22.5995C34.3333 22.3121 34.0739 21.9055 33.8951 21.3867C33.7549 20.9767 33.3694 20.7068 32.9382 20.7488L32.1005 20.8329C31.5537 20.889 31.1612 21.4113 31.3014 21.9441C31.5678 22.9395 32.0409 23.7281 32.7244 24.3135C33.6252 25.0881 34.9116 25.4737 36.5905 25.4737C37.7437 25.4737 38.7041 25.3089 39.4752 24.99C40.2498 24.664 40.8422 24.1733 41.2663 23.5108C41.6904 22.8484 41.8972 22.1368 41.8972 21.3762C41.8972 20.5385 41.722 19.834 41.3644 19.2662C41.0104 18.6984 40.5232 18.2497 39.8993 17.9202C39.2754 17.5907 38.308 17.2753 37.0076 16.9668C35.7073 16.6619 34.8871 16.364 34.5471 16.0801C34.2807 15.8592 34.151 15.5894 34.1475 15.2739C34.1475 14.9304 34.2912 14.657 34.5716 14.4502C35.0133 14.1277 35.6231 13.97 36.3978 13.97C37.1724 13.97 37.7192 14.1207 38.0942 14.4187C38.3466 14.6149 38.5394 14.8989 38.6726 15.2669C38.8128 15.6419 39.2018 15.8698 39.6014 15.8487L40.4987 15.8102C41.0805 15.7856 41.5011 15.2178 41.3399 14.6535C41.1366 13.9385 40.7476 13.3321 40.1797 12.8414C39.3385 12.1123 38.0837 11.7478 36.4188 11.7513C35.3988 11.7513 34.5295 11.909 33.8075 12.214C33.089 12.5189 32.5352 12.9676 32.1566 13.5599C31.7746 14.1453 31.5853 14.7762 31.5853 15.4562C31.5853 16.5077 31.9954 17.3945 32.8086 18.127C33.3869 18.6458 34.3964 19.0839 35.8299 19.4344C36.9445 19.7113 37.6596 19.9041 37.975 20.0128C38.4342 20.1775 38.7567 20.3668 38.9389 20.5841C39.1212 20.8014 39.2158 21.0713 39.2158 21.3832C39.2158 21.8705 38.9985 22.2981 38.5604 22.6626Z" fill="#4CAD36"/>
<path d="M45.9245 11.7408H45.893C45.4689 11.7408 45.1044 12.0282 45.0062 12.4418L42.1706 24.338C42.0374 24.9094 42.4685 25.4596 43.0574 25.4596C43.478 25.4596 43.846 25.1722 43.9442 24.7621L46.8148 12.8659C46.955 12.2946 46.5204 11.7443 45.9281 11.7443L45.9245 11.7408Z" fill="#4CAD36"/>
<path fill-rule="evenodd" clip-rule="evenodd" d="M39.0546 0.5C29.0721 0.5 20.9474 8.62126 20.9474 18.6072C20.9474 28.5932 29.0721 36.7109 39.0546 36.7109C49.0371 36.7109 57.1618 28.5897 57.1618 18.6072C57.1618 8.62477 49.0406 0.5 39.0546 0.5ZM39.0546 32.7572C31.2523 32.7572 24.9046 26.4095 24.9046 18.6072C24.9046 14.8288 26.3767 11.2746 29.0511 8.60374C31.7255 5.92936 35.2761 4.45723 39.0546 4.45723C46.8569 4.45723 53.2046 10.8049 53.2046 18.6072C53.2046 26.4095 46.8569 32.7572 39.0546 32.7572Z" fill="#4CAD36"/>
<path fill-rule="evenodd" clip-rule="evenodd" d="M64.6942 39.4063C63.5621 38.849 62.2933 38.5546 61.0314 38.5546C59.1843 38.5546 57.3616 39.182 55.907 40.3177L49.7661 45.1126L49.1843 45.5683L48.9459 44.8673C47.9855 42.0316 45.3252 40.1284 42.3283 40.1284H28.5604C28.2975 40.1284 28.0417 40.181 27.7998 40.2791L16.0683 45.1687L15.49 45.4105L15.3533 44.7972C15.0694 43.4898 14.4174 42.298 13.4711 41.3517C12.1496 40.0338 10.3971 39.3047 8.5324 39.3047H7.27758C5.41288 39.3047 3.66034 40.0338 2.33893 41.3517C1.02102 42.6731 0.295471 44.4256 0.295471 46.2903V62.5644C0.295471 64.4291 1.02102 66.1851 2.33893 67.503C3.66034 68.8244 5.41288 69.55 7.27758 69.55H8.5324C10.3971 69.55 12.1496 68.8244 13.4711 67.503C14.789 66.1851 15.5145 64.4291 15.5145 62.5644V49.6832L15.8405 49.55L28.8583 44.1242L28.9565 44.0856H42.3283C44.0003 44.0856 45.3602 45.4421 45.3602 47.114V47.3173C45.3602 47.8396 45.2235 48.3548 44.9677 48.807L44.9151 48.8981L44.8345 48.9612L43.3168 50.1459L43.2362 50.2125L43.1345 50.2405C42.8786 50.3106 42.6087 50.3457 42.3283 50.3457H32.3143C31.2243 50.3457 30.3375 51.236 30.3375 52.3261C30.3375 53.4161 31.2243 54.3029 32.3143 54.3029H42.3283C44.4454 54.3029 46.4223 53.3601 47.7577 51.7197L47.7928 51.6706L47.8418 51.6356L58.3395 43.4372C59.1071 42.8413 60.0605 42.5118 61.0314 42.5118C61.6939 42.5118 62.3563 42.6661 62.9522 42.957C64.4454 43.6895 65.4058 45.2353 65.3988 46.8967C65.3953 48.1445 64.9221 49.3257 64.0668 50.2265L52.076 62.9254L51.9217 63.0901H21.6764C20.5829 63.0901 19.6961 63.9769 19.6961 65.067C19.6961 66.1571 20.5829 67.0474 21.6764 67.0474H52.7735C53.3168 67.0474 53.839 66.8195 54.2106 66.427C54.2106 66.427 63.0118 57.107 66.9445 52.9429C68.4902 51.3061 69.3455 49.168 69.3525 46.9177C69.3665 43.7456 67.5368 40.7979 64.6942 39.4063ZM11.5608 62.5644C11.5608 63.3635 11.2383 64.1417 10.674 64.706C10.1097 65.2703 9.32805 65.5928 8.5324 65.5928H7.27758C6.48193 65.5928 5.7003 65.2703 5.13598 64.706C4.57166 64.1417 4.2492 63.3635 4.2492 62.5644V46.2903C4.2492 45.4947 4.57166 44.713 5.13598 44.1487C5.7003 43.5844 6.48193 43.2619 7.27758 43.2619H8.5324C9.32805 43.2619 10.1097 43.5844 10.674 44.1487C11.2383 44.713 11.5608 45.4947 11.5608 46.2903V62.5644Z" fill="#4CAD36"/>
</svg>
